<svg xmlns="http://www.w3.org/2000/svg" viewBox="0 0 600 300"><path d="M182.9 141.8c-8.5 0-15.5 3.5-21.1 10.6-5.6 7-8.4 15.3-8.4 24.6 0 6.4 1.8 11.6 5.3 15.6s8.2 6 14.1 6c7.9 0 14.6-3.3 20.2-9.9 3.7-4.8 5.2-7.7 6-9.8 2.1-5.1 3.1-10.4 3.1-15.7 0-6.3-1.5-11.4-4.5-15.4s-8-6-14.7-6zm.3 42.2c-2.9 2.9-6.3 4.4-10.1 4.4-2.8 0-5.1-1-6.7-3-1.6-2-2.4-4.8-2.4-8.3 0-7 1.7-12.9 5.2-17.7 3.4-4.8 7.8-7.2 13.1-7.2 6 0 8.9 3.6 8.9 10.9.1 10.7-5 17.9-8 20.9zm321-15.9c-2.5-.8-5.3.4-6.3 2.9-4.6 11.5-10.3 17.3-17.3 17.3-3.6 0-5.4-3.1-5.4-9.2 0-3.4 1-10.1 3-20l1.5-7h14.2c2.4 0 4.6-1.7 5-4.1.7-3.2-1.8-6.2-5-6.2H482l2.5-11.6c.7-3.3-1.8-6.4-5.2-6.4-2.5 0-4.6 1.7-5.2 4.2l-3 13.8h-33.2c-8.5 0-15.5 3.5-21.1 10.6-5.6 7-8.4 15.3-8.4 24.6 0 2.6.3 4.9.9 7.1-2.7 2.8-5.6 4.2-8.7 4.2-2.1 0-3.6-.6-4.5-1.8-.9-1.2-1.4-3.2-1.4-6 0-4 .8-9.9 2.5-17.7l8.7-40.2c.7-3.3-1.8-6.4-5.2-6.4-2.5 0-4.7 1.8-5.2 4.2l-5.2 24.5c-3.7-2.1-7.5-3.1-11.6-3.1-8.6 0-15.8 3.3-21.6 10-5.7 6.7-8.6 15.1-8.6 25.2 0 3.2.4 6 1.2 8.6-2.3 1.9-4.7 2.8-7.3 2.8-2.1 0-3.6-.6-4.7-1.8-1-1.2-1.5-3.2-1.5-6 0-2.5.5-6.4 1.6-11.9.6-3.1-1.6-6.1-4.8-6.4-2.6-.3-5.1 1.4-5.8 3.9-2 6.9-4.5 12.2-7.3 15.8-3.4 4.3-7.1 6.5-11 6.5-2.3 0-4.2-1.1-5.7-3.3-1.4-2.2-2.1-5.1-2.1-8.6 0-7.1 1.7-13 5.2-17.5 3.5-4.6 8-6.9 13.6-6.9 2.8 0 5.6.6 8 1.6 1.5.6 3.3.6 4.7-.3 3.6-2.2 3.2-7.6-.6-9.1-2.1-.9-3.2-1.1-4.1-1.3-2.4-.6-5.4-1.1-7.8-1.1-8.5.1-15.7 3.4-21.4 10-3.1 3.6-5.4 7.7-6.8 12.3-5 16.2-11.6 24.3-19.5 24.3-2.7 0-4.7-.9-5.9-2.6-1.3-1.7-1.9-3.9-1.9-6.5 0-.9 0-1.6.1-2.1 5-2 9.1-5.1 12.1-9.2s4.6-8.7 4.6-13.6c0-8.3-4.5-12.4-13.6-12.4-6.4 0-12 2.3-17 6.9l5.6-26.2c.7-3.3-1.8-6.3-5.1-6.3-2.5 0-4.6 1.7-5.1 4.2l-15.4 72c-.7 3.3 1.8 6.3 5.1 6.3 2.5 0 4.6-1.7 5.1-4.1l4.8-22c.8-2.8 1.9-5.7 3.4-8.5s3.8-5.5 7-8c3.1-2.6 6.6-3.8 10.5-3.8 2.6 0 3.9 1.3 3.9 4 0 3-1.7 6-5 8.8-3.3 2.8-6.9 4.6-10.7 5.2-.3 3.2-.5 5.4-.5 6.8 0 6.7 1.5 12 4.5 15.9 3 3.9 7.4 5.8 13.3 5.8 6.9 0 12.9-3 18-8.9.7-.8 1.3-1.6 2-2.5.8 2 1.8 3.8 3.1 5.3 3.3 4 7.7 6 13.3 6 7.1 0 13.1-3.4 18-10.3 2.1 6.9 7.2 10.3 15.5 10.3 4.7 0 8.9-1.5 12.8-4.5 3.1 3 7.1 4.5 11.9 4.5 7.1 0 13.1-3.4 18-10.3 2.1 6.9 7.2 10.3 15.5 10.3 5.3 0 10-1.8 14.1-5.4 3.5 3.6 7.9 5.4 13.5 5.4 7.9 0 14.6-3.3 20.2-9.9 3.7-4.8 5.2-7.7 6-9.8 2.1-5.1 3.1-10.4 3.1-15.7 0-4.2-.7-7.9-2-11.1h13.7l-1.3 6c-2.2 10.3-3.3 17.3-3.3 21 0 13 5.3 19.5 15.8 19.5 11.7 0 20.7-7.9 27.1-23.8 1.2-3.1-.2-6.2-3-7.2zm-117.6-6.4c-1.9 9.1-4.7 15.8-8.2 20.1s-7.3 6.5-11.3 6.5c-2.3 0-4.2-1.1-5.7-3.3-1.4-2.2-2.1-5.1-2.1-8.6 0-7.1 1.7-13 5.2-17.5 3.5-4.6 8-6.9 13.6-6.9 3 0 6.2 1.3 9.7 4l-1.2 5.7zm57.8 12.6s-3.1 6.7-6 9.7c-2.9 2.9-6.3 4.4-10.1 4.4-2.8 0-5.1-1-6.7-3-1.6-2-2.4-4.8-2.4-8.3 0-7 1.7-12.9 5.2-17.7s7.8-7.2 13.1-7.2c6 0 8.9 3.6 8.9 10.9 0 3.6-.6 7.3-2 11.2zm-216.6-58.1c-2.5 0-4.6 1.7-5.1 4.2l-15.4 72c-.7 3.3 1.8 6.3 5.1 6.3 2.5 0 4.6-1.7 5.1-4.1l15.5-72c.7-3.3-1.8-6.4-5.2-6.4zm-110.3-15.9c-20.8 0-37.8 16.9-37.8 37.8 0 4.2.7 8.3 2 12.3.9 2.7 3.9 4.2 6.7 3.3 2.7-.9 4.2-3.9 3.3-6.7-1.1-3.1-1.6-6.4-1.5-9.7.4-14.1 11.8-25.7 25.9-26.4 15.7-.8 28.7 11.7 28.7 27.2 0 14.5-11.4 26.4-25.7 27.2 0 0-5.3.3-7.9.7-1.3.2-2.3.4-3 .5-.3.1-.6-.2-.5-.5l.9-4.4 4.8-22.5c.6-2.8-1.2-5.6-4-6.2-2.8-.6-5.6 1.2-6.2 4 0 0-11.8 55-11.9 55.6-.6 2.8 1.2 5.6 4 6.2 2.8.6 5.6-1.2 6.2-4 .1-.6 1.7-7.9 1.7-7.9 1.2-5.6 5.8-9.7 11.2-10.4 1.2-.2 5.9-.5 5.9-.5 19.5-1.5 34.9-17.8 34.9-37.7.1-21-16.8-37.9-37.7-37.9z"/><path d="M515.3 187.3c-3.4-.7-6.7 1.4-7.5 4.9-.7 3.4 1.4 6.8 4.9 7.5s6.8-1.4 7.5-4.9c.6-3.5-1.5-6.8-4.9-7.5z" fill="#e6007a"/></svg>